<?xml version="1.0" encoding="UTF-8" standalone="yes"?>
<svg version="1.2" width="134.000000pt" height="134.000000pt" viewBox="0 0 134.000000 134.000000" preserveAspectRatio="xMidYMid meet" baseProfile="tiny-ps" xmlns="http://www.w3.org/2000/svg">
  <title>bimi-svg-tiny-12-ps</title>
  <defs id="defs6"/>
  <rect id="rect6" width="134.03641" height="134.03107" x="-8.869079e-08" y="-4.3523229e-07" fill="#c32008" fill-opacity="1" fill-rule="evenodd" stroke-width="3.08629" stroke-dashoffset="447.771"/>
  <path d="m 17.2,48.6 c -2.1,1.5 -2.2,2 -2.2,20 0,24.2 -1.8,22.4 22.3,22.3 10,-0.1 19.3,-0.4 20.7,-0.8 1.4,-0.4 4.8,-3.7 8,-7.7 13.9,-17.8 20.2,-25.2 22.1,-25.7 1.7,-0.5 2,-1.2 1.7,-4.9 C 89.5,47.9 89.2,47.5 86.7,47.2 82.4,46.7 80.2,48.7 69.1,62.9 63.4,70.1 58.3,76.3 57.7,76.7 57,77 57.4,76.3 58.4,75.1 l 2,-2.2 -10.5,0.3 -10.4,0.3 v 3.5 3.5 l 6.8,0.3 c 4.5,0.2 7.4,-0.1 8.5,-1 1.5,-1.2 1.6,-1.1 0.3,0.4 C 54,81.7 52,82 41.6,82 33.4,82 29,81.6 28.2,80.8 26.5,79.1 26.6,59.6 28.3,58.1 c 0.8,-0.6 8,-1.2 18.8,-1.3 L 64.5,56.5 64.8,51.7 65.1,47 H 42.3 c -19.1,0 -23.2,0.3 -25.1,1.6 z" id="path1" fill="#ffffff" stroke="none" stroke-width="0.1" fill-opacity="1"/>
  <path d="m 91,51.9 c 0,4.4 0.3,5 2.3,5.3 1.6,0.2 3.2,2.2 5.9,7.3 2.1,3.8 3.8,7.3 3.8,7.7 0,0.5 -6.5,0.8 -14.4,0.8 H 74.2 l -2.6,3.4 c -1.4,1.9 -2.6,3.7 -2.6,4 0,0.3 11,0.6 24.5,0.6 19.3,0 24.5,-0.3 24.5,-1.3 0,-0.7 -2.3,-4.9 -5.1,-9.2 -2.7,-4.4 -6.4,-10.5 -8,-13.7 C 100.6,48.9 98.6,47 94.5,47 H 91 Z" id="path2" fill="#ffffff" stroke="none" stroke-width="0.1" fill-opacity="1"/>
</svg>